#!OML:ASF E:\id_vita\Project 1\Capture day 1\Session 1\Male1.ASF
:FULLY-SPECIFIED
:DEGREES
819
root 11.8979 13.7091 -8.43168 33.9251 74.4788 -5.72714
lowerback 29.5751 1.82132 -6.13912
upperback 8.26716 1.09758 -0.287511
thorax -7.00745 0.770199 2.81508
lowerneck -12.6424 2.50847 -3.44256
upperneck 8.29672 3.40933 5.35749
head 4.38766 1.9103 2.46355
rclavicle -1.43125e-014 -6.55989e-014
rhumerus 65.7556 24.8483 -43.9669
rradius 21.1366
rwrist 22.0621
rhand -47.1714 85.5616
rfingers 7.12502
rthumb -19.8721 56.5576
lclavicle -1.43125e-014 -6.55989e-014
lhumerus 54.9834 -2.30058 77.4089
lradius 12.7714
lwrist -49.816
lhand -38.3259 82.9066
lfingers 7.12502
lthumb -11.3536 -112.579
rfemur -16.9035 6.87852 20.2145
rtibia 31.9349
rfoot -43.0123 -24.0168
rtoes -4.96844
lfemur -96.8032 3.9037 -18.9645
ltibia 80.5446
lfoot -27.1448 -3.02833
ltoes 27.6778
820
root 12.0218 13.6969 -8.41362 34.2019 74.3592 -5.65363
lowerback 29.1348 1.92909 -6.19038
upperback 8.16737 1.22995 -0.287085
thorax -6.92452 0.826735 2.80416
lowerneck -12.8243 2.50121 -3.36723
upperneck 8.52951 3.40294 5.15666
head 4.49423 1.89823 2.39616
rclavicle 5.725e-014 5.9536e-014
rhumerus 65.1677 24.5876 -45.0936
rradius 21.1736
rwrist 21.7861
rhand -47.0927 85.9113
rfingers 7.12502
rthumb -19.7964 56.8994
lclavicle 5.725e-014 5.9536e-014
lhumerus 54.7768 -1.11524 80.0819
lradius 12.5561
lwrist -52.8626
lhand -38.0604 84.252
lfingers 7.12502
lthumb -11.0975 -113.939
rfemur -15.9362 7.48444 20.1101
rtibia 30.3317
rfoot -41.8676 -24.9975
rtoes -6.60402
lfemur -97.7811 3.91283 -19.0277
ltibia 78.9692
lfoot -25.7641 -4.09705
ltoes 25.2289
821
root 12.1479 13.6781 -8.40119 35.03 74.4783 -4.89451
lowerback 28.8224 1.8624 -6.06731
upperback 8.13655 1.19403 -0.314196
thorax -6.80644 0.805439 2.71931
lowerneck -12.9732 2.49969 -3.37716
upperneck 8.57122 3.41907 5.01568
head 4.53301 1.8978 2.35871
rclavicle 3.97569e-014 4.26393e-014
rhumerus 64.6927 24.3632 -45.782
rradius 21.1845
rwrist 22.2473
rhand -47.0653 86.2424
rfingers 7.12502
rthumb -19.77 57.2278
lclavicle 3.97569e-014 4.26393e-014
lhumerus 54.6622 -3.16385 76.8557
lradius 12.8374
lwrist -49.2475
lhand -39.1944 82.2326
lfingers 7.12502
lthumb -12.1911 -111.857
rfemur -14.8283 7.32943 19.9782
rtibia 28.8846
rfoot -41.5316 -24.5505
rtoes -5.66507
lfemur -98.6748 3.71391 -19.3957
ltibia 77.3814
lfoot -24.4728 -5.2395
ltoes 23.1685
822
root 12.2763 13.6613 -8.38956 36.4185 74.7348 -3.32658
lowerback 28.7173 1.68211 -5.91587
upperback 8.17379 1.01772 -0.396445
thorax -6.69659 0.721757 2.60161
lowerneck -13.0922 2.49382 -3.40016
upperneck 8.41132 3.42444 5.00741
head 4.50266 1.90073 2.3599
rclavicle -6.36111e-015 4.90004e-014
rhumerus 64.6037 24.5303 -45.0102
rradius 21.3032
rwrist 22.1655
rhand -47.0792 85.9375
rfingers 7.12502
rthumb -19.7834 56.9243
lclavicle -6.36111e-015 4.90004e-014
lhumerus 54.5664 -3.48139 76.5863
lradius 12.8964
lwrist -48.8936
lhand -38.3848 84.3003
lfingers 7.12502
lthumb -11.4104 -113.97
rfemur -13.3425 6.9249 19.7514
rtibia 27.3735
rfoot -41.5823 -23.4826
rtoes -3.34089
lfemur -99.2136 3.20642 -19.8487
ltibia 75.7707
lfoot -23.0191 -6.26087
ltoes 22.2266
823
root 12.3992 13.6234 -8.37778 36.8553 74.6941 -2.54267
lowerback 28.7869 1.67146 -5.92115
upperback 8.2285 1.00007 -0.480313
thorax -6.66491 0.715131 2.5166
lowerneck -13.0982 2.51542 -3.29979
upperneck 8.21662 3.45288 4.90364
head 4.446 1.91162 2.31042
rclavicle 2.22639e-014 -1.11319e-014
rhumerus 64.6931 24.8238 -44.1372
rradius 21.7347
rwrist 20.5907
rhand -47.0708 86.1515
rfingers 7.12502
rthumb -19.7754 57.1375
lclavicle 2.22639e-014 -1.11319e-014
lhumerus 54.458 -2.85666 77.9868
lradius 12.8243
lwrist -50.4345
lhand -38.5712 84.1209
lfingers 7.12502
lthumb -11.5902 -113.78
rfemur -11.6323 7.27186 19.5962
rtibia 25.8382
rfoot -41.086 -23.5135
rtoes -2.48319
lfemur -99.5788 3.04703 -20.2408
ltibia 74.3276
lfoot -21.5006 -7.29494
ltoes 21.7247
